<svg xmlns="http://www.w3.org/2000/svg" xmlns:xlink="http://www.w3.org/1999/xlink" width="24" height="24" viewBox="0 0 24 24" fill="currentColor"><path fill-rule="evenodd" clip-rule="evenodd" d="M.933 12C.933 18.1 5.9 23.067 12 23.067c6.102 0 11.067-4.966 11.067-11.067S18.102.933 12 .933C5.9.933.933 5.9.933 12zM0 12c0 6.617 5.383 12 12 12s12-5.383 12-12S18.617 0 12 0 0 5.383 0 12z" fill="null"></path><path fill-rule="evenodd" clip-rule="evenodd" d="M8.516 5.415a.407.407 0 00-.407.407V8.59c0 2.146 1.63 3.92 3.72 4.162v5.565h-1.514a.407.407 0 00-.407.407v.57h4.824v-.57a.407.407 0 00-.407-.407h-1.514V12.75c2.09-.242 3.72-2.016 3.72-4.162V5.822a.407.407 0 00-.407-.407H8.516zm7.23.814v1.063a1.38 1.38 0 00-.823-.257c-.662 0-1.007.388-1.235.644-.208.234-.278.294-.434.294-.156 0-.226-.06-.434-.293-.228-.257-.574-.645-1.235-.645-.662 0-1.007.388-1.235.644-.208.234-.278.293-.434.293-.156 0-.226-.059-.434-.293-.141-.158-.327-.366-.604-.503V6.23h6.868zm-3.43 5.66A3.438 3.438 0 018.878 8.56c.224.23.542.46 1.035.46.664 0 1.01-.415 1.239-.688.208-.25.278-.312.435-.312.156 0 .226.063.434.312.23.274.575.687 1.239.687.663 0 1.01-.413 1.239-.687.208-.25.278-.313.435-.313.157 0 .227.064.435.313.098.117.22.259.377.383a3.438 3.438 0 01-3.43 3.174z" fill="null"></path></svg>