<svg xmlns="http://www.w3.org/2000/svg" xmlns:xlink="http://www.w3.org/1999/xlink"  width="28" height="28" viewBox="0 0 32 32" fill="currentColor"><path d="M16 1l4.24 2.589 5.03.276 1.831 4.464L31 11.365 29.722 16 31 20.635l-3.899 3.036-1.83 4.464-5.03.276L16 31l-4.24-2.589-5.03-.276-1.831-4.464L1 20.635 2.278 16 1 11.365l3.899-3.036 1.83-4.464 5.03-.276L16 1z" fill="#E74C3C"></path><path fill-rule="evenodd" clip-rule="evenodd" d="M15.479.146a1 1 0 011.042 0l4.025 2.458 4.78.262a1 1 0 01.87.62l1.73 4.218 3.688 2.872a1 1 0 01.35 1.055L30.76 16l1.205 4.37a1 1 0 01-.35 1.054l-3.689 2.872-1.73 4.219a1 1 0 01-.87.619l-4.779.262-4.025 2.457a1 1 0 01-1.042 0l-4.025-2.457-4.78-.262a1 1 0 01-.87-.62l-1.73-4.218-3.688-2.872a1 1 0 01-.35-1.055L1.241 16 .036 11.63a1 1 0 01.35-1.054l3.689-2.872 1.73-4.219a1 1 0 01.87-.619l4.779-.262L15.479.146zm-3.72 3.443l-5.03.276L4.9 8.329 1 11.365 2.278 16 1 20.635l3.9 3.036 1.83 4.464 5.03.276L16 31l4.24-2.589 5.03-.276 1.831-4.464L31 20.635 29.722 16 31 11.365l-3.899-3.036-1.83-4.464-5.03-.276L16 1l-4.24 2.589z" fill="#000"></path><path d="M10.174 14.969l1.195-.32 1.312 4.897-.945.253-2.986-2.2.75 2.799-1.188.318L7 15.82l.93-.249 2.994 2.198-.75-2.8zM14.032 19.183l-1.312-4.896 3.48-.933.264.987-2.237.599.25.93 2.097-.561.263.979-2.098.562.272 1.014 2.236-.6.265.987-3.48.932zM23.424 11.419l1.209-.324-.439 5.365-1.014.272-1.822-2.66-.261 3.219-1.021.273-3.056-4.43 1.3-.348 1.845 2.834.265-3.4.883-.236 1.895 2.88.216-3.445z" fill="#000"></path></svg>