<svg xmlns="http://www.w3.org/2000/svg" xmlns:xlink="http://www.w3.org/1999/xlink" width="28" height="28" viewBox="0 0 33 32" fill="currentColor"><path d="M16.628 1l4.24 2.589 5.03.276 1.831 4.464 3.9 3.036L30.35 16l1.278 4.635-3.899 3.036-1.83 4.464-5.03.276L16.629 31l-4.24-2.589-5.031-.276-1.83-4.464-3.9-3.036L2.907 16l-1.279-4.635 3.9-3.036 1.83-4.464 5.03-.276L16.628 1z" fill="#F7C903"></path><path fill-rule="evenodd" clip-rule="evenodd" d="M16.107.146a1 1 0 011.043 0l4.025 2.458 4.779.262a1 1 0 01.87.62l1.73 4.218 3.689 2.872a1 1 0 01.35 1.055L31.387 16l1.206 4.37a1 1 0 01-.35 1.054l-3.69 2.872-1.729 4.219a1 1 0 01-.87.619l-4.78.262-4.024 2.457a1 1 0 01-1.043 0l-4.025-2.457-4.779-.262a1 1 0 01-.87-.62l-1.73-4.218-3.689-2.872a1 1 0 01-.35-1.055L1.87 16 .664 11.63a1 1 0 01.35-1.054l3.69-2.872 1.729-4.219a1 1 0 01.87-.619l4.78-.262L16.106.146zM12.388 3.59l-5.03.276-1.83 4.464-3.9 3.036L2.907 16l-1.279 4.635 3.9 3.036 1.83 4.464 5.03.276L16.628 31l4.24-2.589 5.031-.276 1.83-4.464 3.9-3.036L30.35 16l1.278-4.635-3.898-3.036-1.831-4.464-5.03-.276L16.629 1l-4.24 2.589z" fill="#fff"></path><path d="M16.174 9.876c.18-.368.73-.368.91 0l1.7 3.483a.5.5 0 00.394.272l4.009.462c.423.05.593.547.28.823l-2.956 2.615a.463.463 0 00-.151.44l.776 3.77c.082.397-.363.705-.735.508l-3.529-1.867a.524.524 0 00-.487 0l-3.529 1.866c-.373.198-.818-.11-.736-.508l.777-3.768a.463.463 0 00-.15-.441l-2.958-2.615c-.312-.276-.142-.774.281-.823l4.008-.462a.5.5 0 00.395-.272l1.7-3.483z" fill="#fff"></path></svg>