<svg xmlns="http://www.w3.org/2000/svg" xmlns:xlink="http://www.w3.org/1999/xlink" width="28" height="28" viewBox="0 0 25 24" fill="currentColor"><path d="M12.721.75l3.18 1.942 3.773.207 1.373 3.348 2.924 2.277L23.012 12l.96 3.476-2.925 2.277-1.373 3.348-3.773.207-3.18 1.942-3.18-1.942-3.773-.207-1.373-3.348-2.924-2.277L2.43 12l-.959-3.476 2.924-2.277 1.373-3.348 3.773-.207L12.721.75z" fill="#FA8C16"></path><path fill-rule="evenodd" clip-rule="evenodd" d="M12.33.11a.75.75 0 01.782 0l3.019 1.843 3.584.197a.75.75 0 01.653.464l1.297 3.164 2.767 2.154a.75.75 0 01.262.791L23.79 12l.904 3.277a.75.75 0 01-.262.791l-2.767 2.154-1.297 3.164a.75.75 0 01-.653.464l-3.584.197-3.019 1.843a.75.75 0 01-.782 0l-3.019-1.843-3.584-.197a.75.75 0 01-.653-.464l-1.297-3.164-2.766-2.154a.75.75 0 01-.263-.791L1.652 12 .748 8.723a.75.75 0 01.263-.791l2.766-2.154 1.297-3.164a.75.75 0 01.653-.464l3.584-.197L12.331.11zM9.541 2.692l-3.773.207-1.373 3.348-2.924 2.277L2.43 12l-.959 3.476 2.924 2.277L5.768 21.1l3.773.207 3.18 1.942 3.18-1.942 3.773-.207 1.373-3.348 2.924-2.277L23.012 12l.96-3.476-2.925-2.277-1.373-3.348-3.773-.207L12.721.75l-3.18 1.942z" fill="#fff"></path><path d="M18.1 17.375h-3.555v-.07l1.3-.556a.203.203 0 00.063-.043l.304-.304.895.517a.204.204 0 00.277-.075l.407-.703a6.102 6.102 0 00-1.663-7.952.806.806 0 00.42-.934.814.814 0 00-1.596.256 6.102 6.102 0 00-7.716 2.536l-.406.704a.203.203 0 00.074.277l4.498 2.597c-.06.028-.12.06-.175.097-.9.03-1.634.638-1.744 1.419H8.045a.203.203 0 00-.155.334l1.016 1.205c.022.026.05.046.082.059l1.495.572v.064H6.928a.712.712 0 000 1.422H18.1a.712.712 0 000-1.422zM15.37 7.57a.404.404 0 01.394-.512.404.404 0 01.391.301.404.404 0 01-.287.498.404.404 0 01-.497-.287zm-7.782 2.68A5.65 5.65 0 0111.04 7.6a5.65 5.65 0 014.316.568 5.694 5.694 0 012.082 7.77l-.305.527-9.85-5.687.304-.528zm3.224 3.95c-.08.161-.126.342-.126.534h.406c0-.448.365-.812.813-.812v-.007l2.122 1.226H9.895c.086-.437.442-.794.917-.942zm-.053 2.782l-1.576-.604-.7-.831h6.248l1.117.645-.2.2-1.386.593a.203.203 0 00-.123.187v.203h-3.25v-.203a.203.203 0 00-.13-.19zm7.341 1.409H6.928a.305.305 0 010-.61H18.1a.305.305 0 010 .61z" fill="#FFF7E6"></path><path d="M14.952 14.125h-.407v.406h.407v-.406zM15.967 14.734h-.406v.407h.406v-.407zM16.983 15.344h-.406v.406h.406v-.406zM6.42 7.625c.449 0 .813.364.813.813a.203.203 0 00.406 0c0-.449.365-.813.813-.813a.203.203 0 000-.406.813.813 0 01-.813-.813.203.203 0 00-.406 0 .813.813 0 01-.813.813.203.203 0 000 .406zm1.016-.546c.09.136.207.253.343.343-.136.09-.253.207-.343.342a1.23 1.23 0 00-.343-.342c.136-.09.253-.207.343-.343zm-.61 6.64c.449 0 .813.364.813.812a.203.203 0 00.406 0c0-.448.365-.812.813-.812a.203.203 0 000-.406.813.813 0 01-.813-.813.203.203 0 00-.406 0 .813.813 0 01-.812.813.203.203 0 000 .406zm1.016-.546c.09.136.207.252.343.343-.136.09-.253.207-.343.342a1.229 1.229 0 00-.342-.342 1.23 1.23 0 00.342-.343zm3.86-3.11a.813.813 0 01-.813-.813.203.203 0 00-.406 0 .813.813 0 01-.813.813.203.203 0 000 .406c.448 0 .813.364.813.812a.203.203 0 00.406 0c0-.448.365-.812.813-.812a.203.203 0 000-.406zm-1.016.545a1.231 1.231 0 00-.343-.342c.136-.09.253-.207.343-.343.09.136.207.252.342.343a1.23 1.23 0 00-.342.342z" fill="#FFF7E6"></path></svg>