<svg xmlns="http://www.w3.org/2000/svg" xmlns:xlink="http://www.w3.org/1999/xlink" width="16" height="16" viewBox="0 0 24 24" fill="currentColor" color="rgb(230, 3, 75)"><path fill-rule="evenodd" clip-rule="evenodd" d="M0 12c0 6.627 5.373 12 12 12s12-5.373 12-12S18.627 0 12 0 0 5.373 0 12zm23.04 0c0 6.097-4.943 11.04-11.04 11.04C5.903 23.04.96 18.097.96 12 .96 5.903 5.903.96 12 .96 18.097.96 23.04 5.903 23.04 12z" fill="null"></path><path d="M14.104 17.797l-.178.837c-.593.258-1.007.451-1.363.58a3.304 3.304 0 01-1.185.193c-.711 0-1.245-.193-1.6-.58-.356-.386-.593-.837-.593-1.416 0-.194 0-.451.06-.645 0-.257.059-.515.118-.772l.711-2.706.178-.773c.06-.257.06-.45.06-.644 0-.322-.06-.58-.179-.708-.118-.13-.414-.194-.77-.194-.178 0-.355 0-.593.065a3.868 3.868 0 00-.474.193l.178-.837c.474-.194.889-.387 1.363-.516a4.1 4.1 0 011.185-.193c.711 0 1.245.193 1.6.516.356.386.534.837.534 1.417 0 .128 0 .322-.06.644 0 .322-.059.58-.118.837l-.711 2.705c-.06.194-.119.451-.178.773-.06.258-.06.516-.06.644 0 .387.06.58.238.773.178.13.415.194.77.194.178 0 .356-.065.593-.13.177-.128.355-.192.474-.257zm.178-11.465c0 .45-.178.901-.475 1.224-.355.322-.71.515-1.185.515-.474 0-.889-.193-1.185-.515-.355-.323-.474-.773-.474-1.224 0-.451.178-.902.474-1.224.356-.322.711-.515 1.185-.515.474 0 .89.193 1.185.515.297.322.475.708.475 1.224z" fill="null"></path></svg>